<svg width="85" height="100" viewBox="0 0 85 100" fill="none" xmlns="http://www.w3.org/2000/svg">
<path fill-rule="evenodd" clip-rule="evenodd" d="M-3.05904e-06 29.0891L0.00195217 28.8087C0.0853979 22.9234 2.79196 17.463 7.3685 12.9369C14.9879 5.40155 27.7904 0.4574 42.2988 0.4574C54.6975 0.457431 65.8502 4.06815 73.5869 9.82141C80.4272 14.908 84.5972 21.6689 84.5972 29.0891L84.5972 66.7919C84.5972 67.229 83.9332 67.379 83.7264 66.9941C82.498 64.7061 80.0957 61.033 77.3335 61.033C75.9628 61.033 74.6807 61.4383 73.5869 62.142L73.558 62.1604C73.3482 62.2969 73.1455 62.4443 72.9503 62.6022C71.2003 64.017 70.0699 66.2581 70.0698 68.7804L70.0698 80.6814L72.1909 83.6092C72.3939 83.8894 72.3939 84.2685 72.1909 84.5488L68.5076 89.6336C68.1878 90.0749 67.5302 90.075 67.2105 89.6336L63.5276 84.5488C63.3246 84.2685 63.3246 83.8894 63.5276 83.6092L65.6482 80.6814L65.6482 78.9426C65.6482 73.2171 61.2969 70.1773 55.9292 70.1772C55.4801 70.1772 55.0379 70.2101 54.6051 70.273C54.2987 70.3174 53.9968 70.3768 53.7002 70.451C49.4066 71.5254 46.2097 75.6367 46.2097 80.5443L46.2097 82.84L49.9974 88.0687C50.2004 88.349 50.2004 88.7281 49.9974 89.0084L42.9472 98.7408C42.6274 99.1821 41.9698 99.1821 41.6501 98.7408L34.6003 89.0084C34.3972 88.7281 34.3972 88.349 34.6003 88.0687L38.3879 82.8404L38.3879 80.5443C38.3879 75.6366 35.1907 71.5257 30.897 70.4514C30.6004 70.3772 30.2985 70.3174 29.9922 70.273L29.9796 70.2711L29.8545 70.2539L29.8385 70.2519L29.6993 70.2351L29.6809 70.2328L29.666 70.2316C29.3381 70.196 29.0052 70.1772 28.6685 70.1772C23.3007 70.1772 18.949 73.217 18.949 78.9426L18.949 80.6814L21.194 83.7808C21.3229 83.9589 21.3229 84.1995 21.194 84.3776L17.3867 89.6332C17.067 90.0745 16.4094 90.0745 16.0896 89.6332L12.4064 84.5488C12.2034 84.2686 12.2034 83.8894 12.4064 83.6092L14.5274 80.6814L14.5274 68.7804C14.5274 66.2581 13.3969 64.017 11.647 62.6022C11.4518 62.4443 11.249 62.2969 11.0393 62.1604L11.0103 62.142C9.91645 61.4383 8.63445 61.033 7.2637 61.033C4.50154 61.033 2.0996 64.7061 0.871252 66.9941C0.66446 67.3792 -1.39189e-06 67.229 -1.411e-06 66.7919L-3.05904e-06 29.0891ZM0.442663 33.2475C0.71625 34.5203 1.11385 35.7661 1.62636 36.9789C2.59956 39.2818 3.98808 41.4663 5.73353 43.4922C7.23927 45.24 9.0107 46.8698 11.0103 48.3568C18.7471 54.1101 29.9001 57.7212 42.2988 57.7212C54.6975 57.7212 65.8502 54.1101 73.5869 48.3568C75.5865 46.8698 77.358 45.24 78.8637 43.4922C80.6091 41.4663 81.9981 39.2818 82.9713 36.9789C83.4837 35.7662 83.8806 34.5202 84.1542 33.2475C83.1344 30.2838 80.4656 28.169 77.3335 28.169C77.1175 28.169 76.9037 28.1792 76.6926 28.1987C75.5635 28.304 74.5084 28.6849 73.5869 29.278C71.4793 30.6342 70.0699 33.1 70.0698 35.9168L70.0698 37.3107C70.0698 37.614 70.1573 37.9049 70.3127 38.1194L71.9453 40.3734C72.2689 40.8201 72.2689 41.5444 71.9453 41.9911L68.445 46.8229C68.1214 47.2697 67.5967 47.2697 67.273 46.8229L63.7732 41.9911C63.4496 41.5444 63.4496 40.8201 63.7732 40.3734L65.4058 38.1194C65.5611 37.9049 65.6482 37.614 65.6482 37.3107L65.6482 28.4134C65.6482 23.5969 62.5603 19.5457 58.3873 18.3811C57.6024 18.1631 56.7778 18.0463 55.9288 18.0463C50.5611 18.0464 46.2097 22.6879 46.2097 28.4134L46.2097 30.2322C46.2097 30.5355 46.2968 30.8264 46.4521 31.0409L49.7518 35.5958C50.0753 36.0425 50.0753 36.7669 49.7518 37.2136L42.8846 46.6933C42.561 47.1399 42.0366 47.1398 41.713 46.6933L34.8458 37.2136C34.5222 36.7668 34.5222 36.0425 34.8458 35.5958L38.1451 31.0417C38.3005 30.8271 38.3876 30.536 38.3876 30.2326L38.3876 28.4134C38.3876 22.6879 34.0362 18.0464 28.6685 18.0463C28.2653 18.0463 27.8677 18.0726 27.4773 18.1234L27.4304 18.1296L27.3092 18.1468C26.9618 18.1985 26.62 18.2701 26.2854 18.3603L26.2584 18.3674L26.2346 18.374L26.1501 18.3979C26.0252 18.4335 25.9011 18.4715 25.7782 18.5124C21.8218 19.8248 18.949 23.7613 18.949 28.4134L18.949 37.3107C18.949 37.614 19.0364 37.9049 19.1918 38.1194L20.8244 40.3734C21.148 40.8201 21.148 41.5444 20.8244 41.9911L17.3242 46.8225C17.0006 47.2692 16.4758 47.2692 16.1522 46.8225L12.6519 41.9911C12.3284 41.5445 12.3284 40.8201 12.6519 40.3734L14.2846 38.1194C14.4399 37.9049 14.5274 37.614 14.5274 37.3107L14.5274 35.9168C14.5274 33.0999 13.1179 30.6342 11.0103 29.278C10.0888 28.685 9.03374 28.304 7.90463 28.1987C7.69348 28.1792 7.47972 28.169 7.2637 28.169C4.13161 28.169 1.46243 30.2838 0.442663 33.2475Z" fill="white"/>
</svg>
